<svg width="13" height="15" viewBox="0 0 13 15" fill="none" xmlns="http://www.w3.org/2000/svg">
<path fill-rule="evenodd" clip-rule="evenodd" d="M9.23413 14.4991C9.33772 14.4991 9.43707 14.4464 9.51032 14.3527C9.58357 14.2589 9.62472 14.1318 9.62472 13.9992V2.20768L12.0823 5.35427C12.1557 5.44815 12.2552 5.50089 12.3589 5.50089C12.4626 5.50089 12.5621 5.44815 12.6354 5.35427C12.7088 5.2604 12.75 5.13308 12.75 5.00032C12.75 4.86756 12.7088 4.74024 12.6354 4.64636L9.51067 0.646875C9.47439 0.600318 9.43128 0.56338 9.38383 0.538176C9.33638 0.512973 9.28551 0.5 9.23413 0.5C9.18275 0.5 9.13188 0.512973 9.08443 0.538176C9.03697 0.56338 8.99387 0.600318 8.95759 0.646875L5.83284 4.64636C5.75949 4.74024 5.71829 4.86756 5.71829 5.00032C5.71829 5.13308 5.75949 5.2604 5.83284 5.35427C5.90618 5.44815 6.00565 5.50089 6.10938 5.50089C6.2131 5.50089 6.31257 5.44815 6.38592 5.35427L8.84353 2.20768V13.9992C8.84353 14.1318 8.88469 14.2589 8.95794 14.3527C9.03119 14.4464 9.13054 14.4991 9.23413 14.4991ZM3.76581 0.500894C3.8694 0.500894 3.96875 0.553565 4.042 0.647322C4.11525 0.741078 4.1564 0.868239 4.1564 1.00083V12.7923L6.61402 9.64573C6.68737 9.55185 6.78684 9.49911 6.89056 9.49911C6.99429 9.49911 7.09376 9.55185 7.1671 9.64573C7.24045 9.7396 7.28165 9.86692 7.28165 9.99968C7.28165 10.1324 7.24045 10.2598 7.1671 10.3536L4.04235 14.3531C4.00607 14.3997 3.96297 14.4366 3.91551 14.4618C3.86806 14.487 3.81719 14.5 3.76581 14.5C3.71443 14.5 3.66356 14.487 3.61611 14.4618C3.56866 14.4366 3.52555 14.3997 3.48927 14.3531L0.364516 10.3536C0.291173 10.2598 0.249969 10.1324 0.249969 9.99968C0.249969 9.86692 0.291173 9.7396 0.364516 9.64573C0.43786 9.55185 0.537334 9.49911 0.641057 9.49911C0.74478 9.49911 0.844255 9.55185 0.917598 9.64573L3.37522 12.7923V1.00083C3.37522 0.868239 3.41637 0.741078 3.48962 0.647322C3.56287 0.553565 3.66222 0.500894 3.76581 0.500894Z" fill="#726969"/>
</svg>
